# AST/ASF file generated using VICON BodyLanguage
# -----------------------------------------------
:version 1.10
:name VICON
:units
  mass 1.0
  length 0.45
  angle deg
:documentation
   .ast/.asf automatically generated from VICON data using
   VICON BodyBuilder and BodyLanguage model FoxedUp or BRILLIANT.MOD
:root
   order TX TY TZ RX RY RZ
   axis XYZ
   position 0 0 0  
   orientation 0 0 0 
:bonedata
  begin
     id 1 
     name lhipjoint
     direction 0.521689 -0.742065 0.420928 
     length 2.47002 
     axis 0 0 0  XYZ
  end
  begin
     id 2 
     name lfemur
     direction 0.34202 -0.939693 0  
     length 7.24654  
     axis 0 0 20  XYZ
    dof rx ry rz
    limits (-160.0 20.0)
           (-70.0 70.0)
           (-60.0 70.0)
  end
  begin
     id 3 
     name ltibia
     direction 0.34202 -0.939693 0   
     length 8.04849   
     axis 0 0 20   XYZ
    dof rx
    limits (-10.0 170.0)
  end
  begin
     id 4 
     name lfoot
     direction 0.0745411 -0.2048 0.975961   
     length 1.72367   
     axis -90 7.62852e-016 20   XYZ
    dof rx rz
    limits (-45.0 90.0)
           (-70.0 20.0)
  end
  begin
     id 5 
     name ltoes
     direction 1.53556e-011 -4.21901e-011 1   
     length 0.87311   
     axis -90 7.62852e-016 20   XYZ
    dof rx
    limits (-90.0 20.0)
  end
  begin
     id 6 
     name rhipjoint
     direction -0.52849 -0.738415 0.418857   
     length 2.48223  
     axis 0 0 0  XYZ 
  end
  begin
     id 7 
     name rfemur
     direction -0.34202 -0.939693 0   
     length 7.15571   
     axis 0 0 -20   XYZ
    dof rx ry rz
    limits (-160.0 20.0)
           (-70.0 70.0)
           (-70.0 60.0)
  end
  begin
     id 8 
     name rtibia
     direction -0.34202 -0.939693 0   
     length 7.81659   
     axis 0 0 -20   XYZ
    dof rx
    limits (-10.0 170.0)
 end
 begin
     id 9 
     name rfoot
     direction -0.0917348 -0.252039 0.963359   
     length 1.84382  
     axis -90 -7.62852e-016 -20   XYZ
    dof rx rz
    limits (-45.0 90.0)
           (-20.0 70.0)
  end
  begin
     id 10 
     name rtoes
     direction -1.53551e-011 -4.21879e-011 1   
     length 0.927771   
     axis -90 -7.62852e-016 -20   XYZ
    dof rx
    limits (-90.0 20.0)
  end
  begin
     id 11 
     name lowerback
     direction 0.00583058 0.999822 0.0179296   
     length 2.1429   
     axis 0 0 0   XYZ
    dof rx ry rz
    limits (-20.0 45.0)
           (-30.0 30.0)
           (-30.0 30.0)
  end
  begin
     id 12 
     name upperback
     direction -0.0137999 0.999752 -0.0175071   
     length 2.14252   
     axis 0 0 0   XYZ
    dof rx ry rz
    limits (-20.0 45.0)
           (-30.0 30.0)
           (-30.0 30.0)
  end
  begin
     id 13 
     name thorax
     direction -0.0158036 0.99955 -0.0254909   
     length 2.1383   
     axis 0 0 0   XYZ
    dof rx ry rz
    limits (-20.0 45.0)
           (-30.0 30.0)
           (-30.0 30.0)
  end
  begin
     id 14 
     name lowerneck
     direction -0.0101179 0.999403 -0.0330262   
     length 1.65808   
     axis 0 0 0   XYZ
    dof rx ry rz
    limits (-20.0 45.0)
           (-30.0 30.0)
           (-30.0 30.0)
  end
  begin
     id 15 
     name upperneck
     direction 0.0497734 0.995978 -0.074501   
     length 1.5897   
     axis 0 0 0   XYZ
    dof rx ry rz
    limits (-20.0 45.0)
           (-30.0 30.0)
           (-30.0 30.0)
  end
  begin
     id 16
     name head
     direction 0.0189524 0.999519 -0.0245438  
     length 1.74024  
     axis 0 0 0   XYZ
    dof rx ry rz
    limits (-20.0 45.0)
           (-30.0 30.0)
           (-30.0 30.0)
  end
  begin
     id 17 
     name lclavicle
     direction 0.945604 0.324422 0.0241537  
     length 3.59089  
     axis 0 0 0   XYZ
    dof ry rz
    limits (-20.0 10.0)
           (0.0 20.0)
  end
  begin
     id 18 
     name lhumerus
     direction 1 -4.48964e-011 -2.63524e-027   
     length 5.2391   
     axis 180 -30 -90   XYZ
    dof rx ry rz
    limits (-60.0 90.0)
           (-90.0 90.0)
           (-90.0 90.0)
  end
  begin
     id 19
     name lradius
     direction 1 -4.48969e-011 3.86978e-028   
     length 3.31467   
     axis 180 -30 -90   XYZ
    dof rx
    limits (-10.0 170.0)
  end
  begin
     id 20
     name lwrist
     direction 1 -4.48963e-011 7.20928e-028   
     length 1.65734   
     axis -5.52449e-016 90 90   XYZ
    dof ry
    limits (-180.0 0.0)
 end
  begin
     id 21 
     name lhand
     direction 1 -4.48964e-011 1.44186e-027   
     length 0.9659   
     axis -9.20027e-016 90 90   XYZ
    dof rx rz
    limits (-90.0 90.0)
           (-45.0 45.0)
  end
  begin
     id 22 
     name lfingers
     direction 1 -4.48965e-011 2.88371e-027   
     length 0.778733   
     axis -1.84005e-015 90 90   XYZ
    dof rx
    limits (0.0 90.0)
  end
  begin
     id 23
     name lthumb
     direction 0.707107 -6.34931e-011 0.707107   
     length 1.11811   
     axis -90 45 2.85299e-015   XYZ
    dof rx rz
    limits (-45.0 45.0)
           (-45.0 45.0)
  end
  begin
     id 24 
     name rclavicle
     direction -0.923762 0.370785 0.0958234   
     length 3.54196  
     axis 0 0 0   XYZ 
    dof ry rz
    limits (-10.0 20.0)
           (-20.0 0.0)
  end
  begin
     id 25 
     name rhumerus
     direction -1 -4.48966e-011 1.18702e-017  
     length 5.30252   
     axis 180 30 90   XYZ
    dof rx ry rz
    limits (-90.0 60.0)
           (-90.0 90.0)
           (-90.0 90.0)
  end
  begin
     id 26 
     name rradius
     direction -1 -4.48966e-011 4.46736e-027   
     length 3.67875   
     axis 180 30 90   XYZ
    dof rx
    limits (-10.0 170.0)
  end
  begin
     id 27 
     name rwrist
     direction -1 -4.48966e-011 7.20928e-028   
     length 1.83937   
     axis -5.52449e-016 -90 -90   XYZ
    dof ry
    limits (-180.0 0.0)
  end
  begin
     id 28
     name rhand
     direction -1 -4.48973e-011 1.44186e-027   
     length 0.594811   
     axis -9.20027e-016 -90 -90   XYZ
    dof rx rz
    limits (-90.0 90.0)
           (-45.0 45.0)
  end
  begin
     id 29
     name rfingers
     direction -1 -4.48963e-011 2.88371e-027   
     length 0.479552   
     axis -1.84005e-015 -90 -90   XYZ
    dof rx
    limits (0.0 90.0)
  end
  begin
     id 30
     name rthumb
     direction -0.707107 -6.34932e-011 0.707107   
     length 0.688544   
     axis -90 -45 -2.85299e-015   XYZ
    dof rx rz
    limits (-45.0 45.0)
           (-45.0 45.0)
  end
:hierarchy
  begin
    root lhipjoint rhipjoint lowerback
    lhipjoint lfemur
    lfemur ltibia
    ltibia lfoot
    lfoot ltoes
    rhipjoint rfemur
    rfemur rtibia
    rtibia rfoot
    rfoot rtoes
    lowerback upperback
    upperback thorax
    thorax lowerneck lclavicle rclavicle
    lowerneck upperneck
    upperneck head
    lclavicle lhumerus
    lhumerus lradius
    lradius lwrist
    lwrist lhand lthumb
    lhand lfingers
    rclavicle rhumerus
    rhumerus rradius
    rradius rwrist
    rwrist rhand rthumb
    rhand rfingers
  end

#!OML:ASF E:\acrobat2\Project_11_07_03\Capture day 1\Session 1\Acrobat.ASF
:FULLY-SPECIFIED
:DEGREES
454
root 12.5589 6.78135 18.0596 -155.155 19.5357 -17.6477
lowerback 35.4779 -3.0079 4.65819
upperback 20.6545 -1.365 -1.89842
thorax 4.73721 0.465083 -4.02357
lowerneck -0.138711 -0.0478923 3.67902
upperneck 24.7568 -0.664201 2.79285
head 7.6393 0.408798 0.2723
rclavicle -4.13472e-014 1.27222e-014
rhumerus -29.8818 -16.871 -9.33293
rradius 13.8847
rwrist 47.5854
rhand -9.32866 -54.7205
rfingers 7.12502
rthumb 16.6301 -84.0281
lclavicle -4.13472e-014 1.27222e-014
lhumerus 42.2372 -27.096 -36.4871
lradius 25.3082
lwrist 365.771
lhand -14.6464 -4.63298
lfingers 7.12502
lthumb 11.5057 25.0312
rfemur -91.4661 -25.022 4.49924
rtibia 41.4431
rfoot -11.4586 -13.2696
rtoes 12.604
lfemur -92.2813 14.9689 8.63047
ltibia 42.5773
lfoot -9.09022 9.61063
ltoes 7.16257
455
root 12.6146 6.83211 18.0247 -155.685 20.007 -18.2725
lowerback 35.3377 -3.06258 4.80739
upperback 20.5777 -1.36701 -2.20388
thorax 4.68216 0.509198 -4.42618
lowerneck 0.112173 -0.244087 4.34976
upperneck 24.5277 -0.850256 2.21786
head 7.51538 0.319304 -0.0447079
rclavicle -7.95139e-014 -5.94863e-014
rhumerus -30.8012 -17.8554 -7.8374
rradius 13.6401
rwrist 49.2876
rhand -8.28887 -55.2311
rfingers 7.12502
rthumb 17.6309 -84.4517
lclavicle -7.95139e-014 -5.94863e-014
lhumerus 42.7574 -28.3915 -37.7622
lradius 25.3559
lwrist 365.661
lhand -14.6027 -5.17207
lfingers 7.12502
lthumb 11.5479 24.4898
rfemur -89.5452 -25.4666 3.07086
rtibia 40.4628
rfoot -12.9202 -13.6365
rtoes 16.3621
lfemur -91.8078 15.0802 8.60988
ltibia 42.769
lfoot -9.86338 9.49286
ltoes 7.59211
456
root 12.6694 6.88063 17.994 -156.247 20.3874 -19.0547
lowerback 35.2385 -3.19581 4.48499
upperback 20.5001 -1.66954 -2.34126
thorax 4.5951 0.308433 -4.32324
lowerneck -0.00516074 -0.21535 4.15441
upperneck 24.5815 -0.735903 1.91409
head 7.5514 0.332529 -0.104554
rclavicle 5.08889e-014 9.59136e-014
rhumerus -30.6721 -19.2463 -6.36222
rradius 13.4338
rwrist 51.0221
rhand -7.18615 -55.4025
rfingers 7.12502
rthumb 18.6918 -84.5245
lclavicle 5.08889e-014 9.59136e-014
lhumerus 42.5209 -30.2579 -38.6669
lradius 25.3578
lwrist 365.682
lhand -14.3939 -4.88228
lfingers 7.12502
lthumb 11.7493 24.7682
rfemur -87.7522 -26.065 1.72891
rtibia 39.6292
rfoot -14.2142 -13.9845
rtoes 18.5189
lfemur -91.5292 15.1285 8.09163
ltibia 43.0024
lfoot -9.43769 9.45304
ltoes 3.22755
457
root 12.7437 6.96224 17.9632 -155.782 24.5906 -18.2823
lowerback 35.4298 -1.47104 2.54454
upperback 20.0833 0.124417 -2.93947
thorax 4.21665 1.14333 -4.421
lowerneck 0.0130132 -0.342499 4.7981
upperneck 24.3712 -0.816345 1.23651
head 7.47275 0.284793 -0.442789
rclavicle 6.36111e-015 -7.9663e-014
rhumerus -30.9981 -19.6324 -5.33541
rradius 13.4494
rwrist 51.141
rhand -6.17508 -55.9347
rfingers 7.12502
rthumb 19.664 -84.9602
lclavicle 6.36111e-015 -7.9663e-014
lhumerus 42.4186 -31.3677 -39.2535
lradius 25.2451
lwrist 364.939
lhand -13.7909 -4.62095
lfingers 7.12502
lthumb 12.3307 24.9954
rfemur -89.1184 -23.6344 3.42491
rtibia 38.7346
rfoot -12.641 -12.6796
rtoes 23.8594
lfemur -89.0892 18.1516 10.0429
ltibia 43.5283
lfoot -11.2901 10.3611
ltoes 7.33396
458
root 12.8054 7.00578 17.9253 -156.326 24.3214 -18.9249
lowerback 35.4468 -1.80728 3.47935
upperback 19.9118 0.0147184 -3.23772
thorax 4.00451 1.20656 -5.20063
lowerneck 0.4208 -0.78458 6.98399
upperneck 23.6362 -1.23973 -0.308595
head 7.13208 0.112048 -1.34147
rclavicle -1.90833e-014 2.11954e-014
rhumerus -32.2756 -18.6372 -4.77708
rradius 13.6594
rwrist 49.5073
rhand -4.98042 -56.7659
rfingers 7.12502
rthumb 20.8122 -85.6697
lclavicle -1.90833e-014 2.11954e-014
lhumerus 43.3688 -32.0993 -40.9234
lradius 25.1505
lwrist 364.962
lhand -13.2048 -4.63968
lfingers 7.12502
lthumb 12.8958 24.9419
rfemur -87.3962 -24.621 2.51291
rtibia 38.3259
rfoot -13.225 -13.5896
rtoes 22.32
lfemur -89.0967 17.7009 9.64796
ltibia 43.8134
lfoot -10.8627 10.0929
ltoes 9.59619
459
root 12.8678 7.05332 17.8933 -156.685 24.1419 -19.358
lowerback 35.3276 -2.0794 4.03438
upperback 19.7653 -0.17205 -3.31986
thorax 3.8592 1.16084 -5.53026
lowerneck -0.797282 -0.845958 5.14086
upperneck 25.2466 -2.07347 3.11666
head 7.92357 -0.0824577 0.0388833
rclavicle 2.22639e-014 9.44724e-014
rhumerus -32.6595 -17.3931 -4.5274
rradius 13.9382
rwrist 47.37
rhand -3.89869 -57.3968
rfingers 7.12502
rthumb 21.8512 -86.1831
lclavicle 2.22639e-014 9.44724e-014
lhumerus 43.8726 -33.6314 -42.7128
lradius 25.1774
lwrist 366.174
lhand -12.9709 -4.07247
lfingers 7.12502
lthumb 13.1213 25.4947
rfemur -85.9701 -25.3638 1.82686
rtibia 38.0511
rfoot -13.0438 -15.0508
rtoes 17.9337
lfemur -89.2554 17.5699 9.057
ltibia 44.1575
lfoot -9.8932 9.58915
ltoes 10.1687
460
root 12.93 7.10093 17.8616 -156.972 24.2031 -19.655
lowerback 35.2125 -2.26799 3.3351
upperback 19.6503 -0.745192 -2.86544
thorax 3.72411 0.710547 -4.52292
lowerneck -0.633144 -0.576435 4.82079
upperneck 24.9113 -1.342 1.8406
head 7.76763 0.110696 -0.281839
rclavicle -1.90833e-014 -1.06151e-013
rhumerus -30.5834 -17.1943 -4.05735
rradius 14.0032
rwrist 46.0144
rhand -3.16651 -57.8811
rfingers 7.12502
rthumb 22.5542 -86.5837
lclavicle -1.90833e-014 -1.06151e-013
lhumerus 41.9409 -36.1635 -42.1637
lradius 25.1089
lwrist 366.701
lhand -12.622 -3.24984
lfingers 7.12502
lthumb 13.4576 26.2954
rfemur -84.9498 -25.8643 1.31676
rtibia 38.294
rfoot -13.1018 -15.9455
rtoes 15.3158
lfemur -89.1424 17.6121 8.62163
ltibia 44.2315
lfoot -8.61127 9.29794
ltoes 10.4602
461
root 12.9946 7.14275 17.821 -157.092 24.6958 -19.6525
lowerback 34.9582 -2.30997 1.66225
upperback 19.6775 -1.48571 -1.97087
thorax 3.84245 0.0366181 -2.50429
lowerneck -0.82957 0.148082 2.94861
upperneck 24.5879 0.0959643 0.812142
head 7.69502 0.537836 -0.20762
rclavicle 2.8625e-014 1.03766e-013
rhumerus -26.4578 -14.8293 -4.61724
rradius 14.3585
rwrist 41.5588
rhand -3.25649 -58.9485
rfingers 7.12502
rthumb 22.4678 -87.6616
lclavicle 2.8625e-014 1.03766e-013
lhumerus 37.344 -38.9647 -38.6953
lradius 24.7978
lwrist 366.118
lhand -12.1021 -2.71467
lfingers 7.12502
lthumb 13.9586 26.7967
rfemur -84.2869 -26.0278 1.33809
rtibia 38.4872
rfoot -12.9797 -16.2263
rtoes 13.9175
lfemur -88.7411 17.9311 8.63793
ltibia 44.3833
lfoot -7.39147 9.45595
ltoes 9.75895
462
root 13.066 7.16787 17.7685 -157.509 24.3259 -20.1399
lowerback 34.7596 -2.8079 3.45698
upperback 19.4885 -1.52325 -2.50905
thorax 3.63974 0.24733 -4.00131
lowerneck 0.117744 -0.435291 4.6251
upperneck 23.7548 -0.769029 0.552802
head 7.24187 0.221191 -0.634003
rclavicle -3.18055e-015 -7.95139e-015
rhumerus -28.5719 -14.329 -4.18197
rradius 14.749
rwrist 38.6086
rhand -5.098 -59.8176
rfingers 7.12502
rthumb 20.6992 -88.7337
lclavicle -3.18055e-015 -7.95139e-015
lhumerus 38.8666 -39.413 -40.918
lradius 24.7353
lwrist 366.416
lhand -11.4575 -2.06057
lfingers 7.12502
lthumb 14.5797 27.407
rfemur -83.0109 -27.0856 0.918401
rtibia 38.6552
rfoot -12.857 -16.2078
rtoes 14.2578
lfemur -88.7814 17.2467 8.28427
ltibia 44.5071
lfoot -5.96861 9.64464
ltoes 7.56696
463
root 13.1288 7.19983 17.7319 -157.644 24.9718 -20.3962
lowerback 34.6691 -2.72741 3.49363
upperback 19.2954 -1.39465 -2.62516
thorax 3.46024 0.325562 -4.1781
lowerneck 0.558778 -0.633223 5.25676
upperneck 23.1684 -0.926309 -0.105289
head 6.96204 0.126083 -0.962007
rclavicle -6.36111e-015 -2.27608e-014
rhumerus -28.6519 -11.9038 -4.68239
rradius 15.278
rwrist 32.9304
rhand -8.17886 -61.0612
rfingers 7.12502
rthumb 17.7367 90.2723
lclavicle -6.36111e-015 -2.27608e-014
lhumerus 38.7059 -40.6879 -41.78
lradius 24.3592
lwrist 366.637
lhand -10.1335 -1.92637
lfingers 7.12502
lthumb 15.8551 27.4445
rfemur -82.4901 -27.242 0.806153
rtibia 38.7466
rfoot -12.7556 -16.0035
rtoes 16.5913
lfemur -88.407 17.4359 8.1819
ltibia 44.6298
lfoot -4.82778 9.9593
ltoes 8.28909
464
root 13.189 7.22399 17.7023 -157.825 25.4593 -20.8761
lowerback 34.7778 -2.68765 2.876
upperback 19.1176 -1.5623 -2.42432
thorax 3.23075 0.1452 -3.59283
lowerneck 0.307262 -0.52033 4.54862
upperneck 23.0669 -0.780095 0.118465
head 6.97688 0.15352 -0.761687
rclavicle 9.54166e-015 2.20651e-014
rhumerus -27.6613 -9.99904 -4.89154
rradius 15.7684
rwrist 27.5862
rhand -11.2985 -62.0689
rfingers 7.12502
rthumb 14.7329 91.5254
lclavicle 9.54166e-015 2.20651e-014
lhumerus 37.4136 -42.3518 -41.4632
lradius 23.7053
lwrist 366.715
lhand -8.38645 -1.7853
lfingers 7.12502
lthumb 17.537 27.4437
rfemur -81.865 -27.4727 0.283114
rtibia 38.8352
rfoot -12.5481 -16.3796
rtoes 15.521
lfemur -88.1932 17.4258 7.79632
ltibia 44.6819
lfoot -3.70255 10.2764
ltoes 10.1144
465
root 13.2495 7.24158 17.6703 -157.984 25.8985 -21.4176
lowerback 34.8669 -2.66376 1.9987
upperback 19.049 -1.84664 -2.08908
thorax 3.14032 -0.128017 -2.7001
lowerneck -0.286294 -0.247785 3.18887
upperneck 23.0266 -0.513456 1.03167
head 7.07573 0.245352 -0.219574
rclavicle 6.36111e-015 6.04305e-014
rhumerus -26.0726 -9.67358 -4.61687
rradius 15.9742
rwrist 23.669
rhand -14.0833 -62.7126
rfingers 7.12502
rthumb 12.0487 92.3457
lclavicle 6.36111e-015 6.04305e-014
lhumerus 35.2947 -44.0612 -40.2364
lradius 23.0166
lwrist 366.916
lhand -6.3412 -0.942029
lfingers 7.12502
lthumb 19.5043 28.0997
rfemur -81.2854 -27.7513 -0.2534
rtibia 38.8743
rfoot -11.6741 -16.9492
rtoes 10.6762
lfemur -88.0632 17.335 7.28449
ltibia 44.7107
lfoot -2.71128 10.5793
ltoes 10.22
466
root 13.3121 7.25071 17.6308 -157.958 26.477 -21.6704
lowerback 34.4725 -2.71633 1.87094
upperback 19.2322 -1.96365 -2.07316
thorax 3.47624 -0.194086 -2.59323
lowerneck -0.879555 -0.179108 2.92906
upperneck 22.7927 -0.424613 1.01997
head 7.10275 0.258797 -0.175036
rclavicle 5.08889e-014 3.15571e-015
rhumerus -25.445 -8.35191 -4.7476
rradius 16.5433
rwrist 18.7132
rhand -16.1262 -63.2357
rfingers 7.12502
rthumb 10.0784 92.9744
lclavicle 5.08889e-014 3.15571e-015
lhumerus 34.3758 -45.6228 -40.5088
lradius 22.3954
lwrist 368.228
lhand -3.53443 0.215389
lfingers 7.12502
lthumb 22.201 28.9604
rfemur -80.9633 -27.9389 -0.301405
rtibia 38.9625
rfoot -11.0925 -16.6746
rtoes 9.92799
lfemur -87.8003 17.3391 7.18528
ltibia 44.6911
lfoot -2.0252 10.8859
ltoes 9.583
